<mxfile host="app.diagrams.net" modified="2023-03-31T08:07:29.625Z" agent="5.0 (Windows NT 10.0; Win64; x64) AppleWebKit/537.36 (KHTML, like Gecko) Chrome/109.0.0.0 Safari/537.36" etag="ox_N6OLXyBDnv6SHEaJt" version="21.0.10" type="github">
  <diagram id="nr-ribir-MENKCDlqeYF" name="Page-1">
    <mxGraphModel dx="1147" dy="566" grid="1" gridSize="10" guides="1" tooltips="1" connect="1" arrows="1" fold="1" page="1" pageScale="1" pageWidth="1200" pageHeight="1920" math="0" shadow="0">
      <root>
        <mxCell id="0" />
        <mxCell id="1" parent="0" />
        <mxCell id="GoUsKzeZIlfL_xzADwvh-1" value="" style="rounded=0;whiteSpace=wrap;html=1;" parent="1" vertex="1">
          <mxGeometry x="280" y="140" width="420" height="130" as="geometry" />
        </mxCell>
        <mxCell id="GoUsKzeZIlfL_xzADwvh-2" value="Master" style="text;html=1;strokeColor=none;fillColor=none;align=center;verticalAlign=middle;whiteSpace=wrap;rounded=0;" parent="1" vertex="1">
          <mxGeometry x="290" y="150" width="40" height="20" as="geometry" />
        </mxCell>
        <mxCell id="GoUsKzeZIlfL_xzADwvh-3" value="&lt;font style=&quot;font-size: 18px;&quot;&gt;API Server&lt;/font&gt;" style="rounded=1;whiteSpace=wrap;html=1;" parent="1" vertex="1">
          <mxGeometry x="435" y="210" width="110" height="50" as="geometry" />
        </mxCell>
        <mxCell id="GoUsKzeZIlfL_xzADwvh-4" value="&lt;font style=&quot;font-size: 18px;&quot;&gt;Controller Manager&lt;/font&gt;" style="rounded=1;whiteSpace=wrap;html=1;" parent="1" vertex="1">
          <mxGeometry x="290" y="210" width="110" height="50" as="geometry" />
        </mxCell>
        <mxCell id="GoUsKzeZIlfL_xzADwvh-5" value="" style="rounded=0;whiteSpace=wrap;html=1;" parent="1" vertex="1">
          <mxGeometry x="120" y="400" width="310" height="200" as="geometry" />
        </mxCell>
        <mxCell id="GoUsKzeZIlfL_xzADwvh-6" value="&lt;font style=&quot;font-size: 16px&quot;&gt;Node&lt;/font&gt;" style="text;html=1;strokeColor=none;fillColor=none;align=center;verticalAlign=middle;whiteSpace=wrap;rounded=0;" parent="1" vertex="1">
          <mxGeometry x="265" y="575" width="40" height="20" as="geometry" />
        </mxCell>
        <mxCell id="GoUsKzeZIlfL_xzADwvh-7" value="" style="group" parent="1" vertex="1" connectable="0">
          <mxGeometry x="150" y="410" width="116" height="120" as="geometry" />
        </mxCell>
        <mxCell id="GoUsKzeZIlfL_xzADwvh-8" value="" style="rounded=1;whiteSpace=wrap;html=1;dashed=1;" parent="GoUsKzeZIlfL_xzADwvh-7" vertex="1">
          <mxGeometry width="104.4" height="108.00000000000001" as="geometry" />
        </mxCell>
        <mxCell id="GoUsKzeZIlfL_xzADwvh-9" value="" style="rounded=1;whiteSpace=wrap;html=1;dashed=1;" parent="GoUsKzeZIlfL_xzADwvh-7" vertex="1">
          <mxGeometry x="5.800000000000001" y="6" width="104.4" height="108.00000000000001" as="geometry" />
        </mxCell>
        <mxCell id="GoUsKzeZIlfL_xzADwvh-10" value="" style="rounded=1;whiteSpace=wrap;html=1;" parent="GoUsKzeZIlfL_xzADwvh-7" vertex="1">
          <mxGeometry x="11.600000000000001" y="12" width="104.4" height="108.00000000000001" as="geometry" />
        </mxCell>
        <mxCell id="GoUsKzeZIlfL_xzADwvh-11" value="" style="group" parent="GoUsKzeZIlfL_xzADwvh-7" vertex="1" connectable="0">
          <mxGeometry x="20" y="30" width="88.46" height="45" as="geometry" />
        </mxCell>
        <mxCell id="GoUsKzeZIlfL_xzADwvh-12" value="" style="rounded=1;whiteSpace=wrap;html=1;dashed=1;" parent="GoUsKzeZIlfL_xzADwvh-11" vertex="1">
          <mxGeometry width="79.61399999999998" height="40.49999999999999" as="geometry" />
        </mxCell>
        <mxCell id="GoUsKzeZIlfL_xzADwvh-13" value="" style="rounded=1;whiteSpace=wrap;html=1;dashed=1;" parent="GoUsKzeZIlfL_xzADwvh-11" vertex="1">
          <mxGeometry x="4.422999999999999" y="4.25" width="79.61399999999998" height="40.49999999999999" as="geometry" />
        </mxCell>
        <mxCell id="GoUsKzeZIlfL_xzADwvh-14" value="&lt;font style=&quot;font-size: 11px&quot;&gt;Container&lt;/font&gt;" style="rounded=1;whiteSpace=wrap;html=1;" parent="GoUsKzeZIlfL_xzADwvh-11" vertex="1">
          <mxGeometry x="8.845999999999998" y="7.499999999999999" width="79.61399999999998" height="40.49999999999999" as="geometry" />
        </mxCell>
        <mxCell id="GoUsKzeZIlfL_xzADwvh-15" value="&lt;font style=&quot;font-size: 16px&quot;&gt;Pod&lt;/font&gt;" style="text;html=1;strokeColor=none;fillColor=none;align=center;verticalAlign=middle;whiteSpace=wrap;rounded=0;" parent="GoUsKzeZIlfL_xzADwvh-7" vertex="1">
          <mxGeometry x="44.23000000000002" y="88" width="40" height="20" as="geometry" />
        </mxCell>
        <mxCell id="GoUsKzeZIlfL_xzADwvh-16" value="" style="group" parent="1" vertex="1" connectable="0">
          <mxGeometry x="290" y="410" width="116" height="120" as="geometry" />
        </mxCell>
        <mxCell id="GoUsKzeZIlfL_xzADwvh-17" value="" style="rounded=1;whiteSpace=wrap;html=1;dashed=1;" parent="GoUsKzeZIlfL_xzADwvh-16" vertex="1">
          <mxGeometry width="104.4" height="108.00000000000001" as="geometry" />
        </mxCell>
        <mxCell id="GoUsKzeZIlfL_xzADwvh-18" value="" style="rounded=1;whiteSpace=wrap;html=1;dashed=1;" parent="GoUsKzeZIlfL_xzADwvh-16" vertex="1">
          <mxGeometry x="5.800000000000001" y="6" width="104.4" height="108.00000000000001" as="geometry" />
        </mxCell>
        <mxCell id="GoUsKzeZIlfL_xzADwvh-19" value="" style="rounded=1;whiteSpace=wrap;html=1;" parent="GoUsKzeZIlfL_xzADwvh-16" vertex="1">
          <mxGeometry x="11.600000000000001" y="12" width="104.4" height="108.00000000000001" as="geometry" />
        </mxCell>
        <mxCell id="GoUsKzeZIlfL_xzADwvh-20" value="" style="group" parent="GoUsKzeZIlfL_xzADwvh-16" vertex="1" connectable="0">
          <mxGeometry x="20" y="30" width="88.46" height="45" as="geometry" />
        </mxCell>
        <mxCell id="GoUsKzeZIlfL_xzADwvh-21" value="" style="rounded=1;whiteSpace=wrap;html=1;dashed=1;" parent="GoUsKzeZIlfL_xzADwvh-20" vertex="1">
          <mxGeometry width="79.61399999999998" height="40.49999999999999" as="geometry" />
        </mxCell>
        <mxCell id="GoUsKzeZIlfL_xzADwvh-22" value="" style="rounded=1;whiteSpace=wrap;html=1;dashed=1;" parent="GoUsKzeZIlfL_xzADwvh-20" vertex="1">
          <mxGeometry x="4.422999999999999" y="4.25" width="79.61399999999998" height="40.49999999999999" as="geometry" />
        </mxCell>
        <mxCell id="GoUsKzeZIlfL_xzADwvh-23" value="&lt;font style=&quot;font-size: 11px&quot;&gt;Container&lt;/font&gt;" style="rounded=1;whiteSpace=wrap;html=1;" parent="GoUsKzeZIlfL_xzADwvh-20" vertex="1">
          <mxGeometry x="8.845999999999998" y="7.499999999999999" width="79.61399999999998" height="40.49999999999999" as="geometry" />
        </mxCell>
        <mxCell id="GoUsKzeZIlfL_xzADwvh-24" value="&lt;font style=&quot;font-size: 16px&quot;&gt;Pod&lt;/font&gt;" style="text;html=1;strokeColor=none;fillColor=none;align=center;verticalAlign=middle;whiteSpace=wrap;rounded=0;" parent="GoUsKzeZIlfL_xzADwvh-16" vertex="1">
          <mxGeometry x="44.23000000000002" y="88" width="40" height="20" as="geometry" />
        </mxCell>
        <mxCell id="GoUsKzeZIlfL_xzADwvh-25" value="&lt;font style=&quot;font-size: 14px&quot;&gt;kubelet&lt;/font&gt;" style="rounded=1;whiteSpace=wrap;html=1;" parent="1" vertex="1">
          <mxGeometry x="134" y="539" width="70" height="30" as="geometry" />
        </mxCell>
        <mxCell id="GoUsKzeZIlfL_xzADwvh-26" value="&lt;font style=&quot;font-size: 14px&quot;&gt;kube-proxy&lt;/font&gt;" style="rounded=1;whiteSpace=wrap;html=1;" parent="1" vertex="1">
          <mxGeometry x="229" y="539" width="92" height="30" as="geometry" />
        </mxCell>
        <mxCell id="GoUsKzeZIlfL_xzADwvh-27" value="&lt;font style=&quot;font-size: 14px&quot;&gt;docker&lt;/font&gt;" style="rounded=1;whiteSpace=wrap;html=1;" parent="1" vertex="1">
          <mxGeometry x="346" y="539" width="70" height="30" as="geometry" />
        </mxCell>
        <mxCell id="GoUsKzeZIlfL_xzADwvh-28" value="&lt;font style=&quot;font-size: 18px;&quot;&gt;Scheduler&lt;/font&gt;" style="rounded=1;whiteSpace=wrap;html=1;" parent="1" vertex="1">
          <mxGeometry x="580" y="210" width="110" height="50" as="geometry" />
        </mxCell>
        <mxCell id="PYxLoCrTxHW6KoqL0hIT-1" value="" style="shape=cylinder3;whiteSpace=wrap;html=1;boundedLbl=1;backgroundOutline=1;size=4.767441860465112;" vertex="1" parent="1">
          <mxGeometry x="455" y="150" width="70" height="40" as="geometry" />
        </mxCell>
        <mxCell id="PYxLoCrTxHW6KoqL0hIT-2" value="&lt;font style=&quot;font-size: 18px;&quot;&gt;ETCD&lt;/font&gt;" style="text;html=1;strokeColor=none;fillColor=none;align=center;verticalAlign=middle;whiteSpace=wrap;rounded=0;" vertex="1" parent="1">
          <mxGeometry x="455" y="160" width="70" height="30" as="geometry" />
        </mxCell>
        <mxCell id="PYxLoCrTxHW6KoqL0hIT-3" value="" style="endArrow=classic;html=1;rounded=0;exitX=0.5;exitY=0;exitDx=0;exitDy=0;entryX=0.5;entryY=1;entryDx=0;entryDy=0;" edge="1" parent="1" source="GoUsKzeZIlfL_xzADwvh-3" target="PYxLoCrTxHW6KoqL0hIT-2">
          <mxGeometry width="50" height="50" relative="1" as="geometry">
            <mxPoint x="530" y="350" as="sourcePoint" />
            <mxPoint x="580" y="300" as="targetPoint" />
          </mxGeometry>
        </mxCell>
      </root>
    </mxGraphModel>
  </diagram>
</mxfile>
